<svg width="24" height="24" viewBox="0 0 24 24">
  <path fill="currentColor" fill-rule="evenodd" clip-rule="evenodd" d="M15 12v.002c0 .551-.449 1-1 1v2c1.654 0 3-1.345 3-3V12h-2Zm4 0v.002c0 2.757-2.243 5-5 5v2c3.86 0 7-3.139 7-7V12h-2Zm-8.707-8.704A1.002 1.002 0 0 1 12 4.002v16a1 1 0 0 1-1.707.708L6 16.002H3c-.55 0-1-.45-1-1v-6c0-.549.45-1 1-1h3l4.293-4.706Zm9.599.506 2.352 4.755A1 1 0 0 1 21.348 10h-4.73a1 1 0 0 1-.894-1.447L18.1 3.798a1 1 0 0 1 1.79.004ZM18.5 5h1v2.5h-1V5Zm0 3.499a.5.5 0 1 0 1 .001.5.5 0 0 0-1.001-.001Z"/>
</svg>
