<svg width="32" height="32" viewBox="0 0 24 24">
  <path fill-rule="evenodd" clip-rule="evenodd" d="M22.025 2v1c.539 0 .975.437.975.975V7a1 1 0 0 1-1 1h-4a1 1 0 0 1-1-1V4a1 1 0 0 1 1-1V2c0-1.12.95-2 2-2s2.025.88 2.025 2ZM19 3h2V2a1 1 0 1 0-2 0v1Z" fill="currentColor"/>
  <path d="M15 2.415A10.99 10.99 0 0 0 12 2C5.93 2 1 6.93 1 13c0 2 .55 3.88 1.48 5.49l1.29-.75A9.496 9.496 0 0 1 12 3.5c1.049 0 2.057.17 3 .483V2.415ZM21.017 10a9.5 9.5 0 0 1-.797 7.75l1.29.75a10.938 10.938 0 0 0 1.075-8.5h-1.568ZM14 13c0 1.1-.9 2-2 2s-2-.9-2-2 .9-2 2-2 2 .9 2 2Zm-5.5 6.5v.5h7v-.5c0-1.7-1.44-3-3.5-3s-3.5 1.3-3.5 3Z" fill="currentColor"/>
  <path d="M7 13c0-2.76 2.24-5 5-5s5 2.24 5 5c0 .91-.26 1.75-.69 2.49l1.31.76c.55-.96.88-2.06.88-3.25 0-3.58-2.92-6.5-6.5-6.5S5.5 9.42 5.5 13c0 1.18.32 2.29.88 3.25l1.31-.76C7.26 14.75 7 13.91 7 13Z" fill="currentColor"/>
</svg>
