<svg width="24" height="24" viewBox="0 0 24 24" fill="none">
  <path fill="currentColor" d="M19.1 4v1.127L4.85 8.264v9.854c0 .432.296.807.72.914l3.8.94a.954.954 0 0 0 .99-.35l.2-.263v-3.138l-1.342 1.773-2.468-.611V15.21l3.81.84v-2.13a2.88 2.88 0 0 1 2.88-2.88H21V4h-1.9ZM3.9 8.26H2v7.034h1.9V8.26Z"/>
  <path fill="currentColor" d="M12.48 13.92c0-.53.43-.96.96-.96h9.12c.53 0 .96.43.96.96v6.301c0 .53-.43.96-.96.96h-4.43a.96.96 0 0 0-.644.248l-2.445 2.209a.24.24 0 0 1-.401-.178v-2.04a.24.24 0 0 0-.24-.24h-.96a.96.96 0 0 1-.96-.96v-6.3Z"/>
</svg>
