<svg width="24" height="24" viewBox="0 0 24 24">
  <path d="M13 4c0-.332.04-.655.117-.964A7.875 7.875 0 0 0 1.125 9.75v6.188a1.688 1.688 0 0 0 1.688 1.687h5.07a7.877 7.877 0 0 0 7.117 4.5h6.188a1.688 1.688 0 0 0 1.687-1.687V14.25c0-.866-.143-1.718-.415-2.524A3.99 3.99 0 0 1 21 12h-.844c.306.703.469 1.468.469 2.25v5.624H15a5.628 5.628 0 0 1-4.594-2.376 7.875 7.875 0 0 0 6.148-5.523 3.981 3.981 0 0 1-2.092-.883A5.625 5.625 0 0 1 9 15.374H3.375V9.75a5.625 5.625 0 0 1 9.602-3.977l.023.022V4Z" fill="currentColor"/>
  <path d="m22.282 7.557-2.365-4.755a1.008 1.008 0 0 0-1.8-.004l-2.39 4.755a1 1 0 0 0 .9 1.447h4.754a1 1 0 0 0 .901-1.443ZM19.524 4h-1.006v2.5h1.006V4Zm-.503 4a.502.502 0 1 1-.002-1.004A.502.502 0 0 1 19.021 8Z" fill="currentColor" fill-rule="evenodd" clip-rule="evenodd"/>
</svg>
