<svg width="24" height="24" viewBox="0 0 24 24">
  <path fill="currentColor" fill-rule="evenodd" clip-rule="evenodd" d="m20.468 4.762 2.341 4.755a1 1 0 0 1-.892 1.443H17.21a1 1 0 0 1-.89-1.447l2.366-4.755a.993.993 0 0 1 1.782.004ZM19.083 5.96h.995v2.5h-.995v-2.5Zm0 3.499a.5.5 0 0 0 .498.501.5.5 0 0 0 .497-.501.5.5 0 0 0-.497-.501.5.5 0 0 0-.498.5Z"/>
  <path fill="currentColor" d="M16.681 5.66 4.85 8.263v9.854c0 .431.296.807.72.913l3.8.942a.954.954 0 0 0 .99-.35l.2-.264V16.22l-1.342 1.773-2.468-.611V15.21l3.81.84v-2.13a2.88 2.88 0 0 1 2.88-2.88h.48l2.761-5.38ZM3.9 8.26H2v7.034h1.9V8.26Z"/>
  <path fill="currentColor" d="M13.44 12.96a.96.96 0 0 0-.96.96v6.301c0 .53.43.96.96.96h.96a.24.24 0 0 1 .24.24v2.039a.24.24 0 0 0 .4.178l2.446-2.21a.96.96 0 0 1 .643-.247h4.431c.53 0 .96-.43.96-.96V13.92a.96.96 0 0 0-.96-.96h-9.12Z"/>
</svg>
