<svg width="24" height="24" viewBox="0 0 24 24">
  <path fill="currentColor" fill-rule="evenodd" clip-rule="evenodd" d="M15 12v.002c0 .551-.449 1-1 1v2c1.654 0 3-1.345 3-3V12h-2Zm4 0v.002c0 2.757-2.243 5-5 5v2c3.86 0 7-3.139 7-7V12h-2Zm-8.707-8.704A1.002 1.002 0 0 1 12 4.002v16a1 1 0 0 1-1.707.708L6 16.002H3c-.55 0-1-.45-1-1v-6c0-.549.45-1 1-1h3l4.293-4.706Z"/>
  <path fill="currentColor" d="M21.025 5V4c0-1.12-.975-2-2.025-2-1.05 0-2 .88-2 2v1a1 1 0 0 0-1 1v3a1 1 0 0 0 1 1h4a1 1 0 0 0 1-1V5.975A.975.975 0 0 0 21.025 5ZM20 5h-2V4a1 1 0 1 1 2 0v1Z"/>
</svg>
