<svg width="24" height="24" viewBox="0 0 24 24">
  <path fill-rule="evenodd" clip-rule="evenodd" fill="currentColor" d="m20.468 4.762 2.341 4.755a1 1 0 0 1-.892 1.443H17.21a1 1 0 0 1-.89-1.447l2.366-4.755a.993.993 0 0 1 1.782.004ZM19.083 5.96h.996v2.5h-.996v-2.5Zm0 3.499a.5.5 0 0 0 .498.501.5.5 0 0 0 .498-.501.5.5 0 0 0-.498-.501.5.5 0 0 0-.498.5Z"/>
  <path fill="currentColor" fill-rule="evenodd" clip-rule="evenodd" d="m4.85 8.264 11.867-2.613-1.61 3.655A1.92 1.92 0 0 0 16.864 12H21v7.059h-1.9V17.93l-6.394-1.406-2.346 3.1a.954.954 0 0 1-.99.349l-3.8-.941a.945.945 0 0 1-.72-.914V8.264Zm4.368 9.73-2.468-.611V15.21l3.92.864-1.452 1.92Z"/>
  <path d="M3.9 8.26H2v7.034h1.9V8.26Z" fill="currentColor"/>
</svg>
