<svg width="24" height="24" viewBox="0 0 20 20">
  <path fill="currentColor" fill-rule="evenodd" clip-rule="evenodd" d="M6.57 14.687H2.343A1.406 1.406 0 0 1 .938 13.28V8.124a6.562 6.562 0 0 1 12.524-2.741 6.563 6.563 0 0 1 5.6 6.491v5.157a1.406 1.406 0 0 1-1.406 1.406H12.5a6.565 6.565 0 0 1-5.93-3.75ZM4.184 4.81A4.687 4.687 0 1 1 7.5 12.812H2.813V8.124c0-1.243.493-2.435 1.372-3.314Zm4.487 9.771a4.689 4.689 0 0 0 3.828 1.98h4.688v-4.687a4.688 4.688 0 0 0-3.161-4.432 6.563 6.563 0 0 1-5.355 7.139Z"/>
</svg>
