<svg width="32" height="32" viewBox="0 0 24 24">
  <path fill-rule="evenodd" clip-rule="evenodd" d="M14 13c0 1.1-.9 2-2 2s-2-.9-2-2 .9-2 2-2 2 .9 2 2Zm-5.5 7v-.5c0-1.7 1.44-3 3.5-3s3.5 1.3 3.5 3v.5h-7ZM7 13c0-2.76 2.24-5 5-5s5 2.24 5 5c0 .91-.26 1.75-.69 2.49l1.31.76c.55-.96.88-2.06.88-3.25 0-3.58-2.92-6.5-6.5-6.5S5.5 9.42 5.5 13c0 1.18.32 2.29.88 3.25l1.31-.76C7.26 14.75 7 13.91 7 13Zm-4.5 0c0-5.25 4.25-9.5 9.5-9.5s9.5 4.25 9.5 9.5c0 1.73-.47 3.35-1.28 4.75l1.29.75C22.45 16.88 23 15 23 13c0-6.07-4.93-11-11-11S1 6.93 1 13c0 2 .55 3.88 1.48 5.49l1.29-.75A9.484 9.484 0 0 1 2.5 13Z" fill="currentColor"/>
</svg>
