<svg width="24" height="24" viewBox="0 0 24 24">
  <path fill="currentColor" d="M14.4 7a.24.24 0 0 1 .24.24v1.52a.24.24 0 0 1-.24.24H9.41l-1.06 6h2.21v2H8l-.637 3.587a.5.5 0 0 1-.492.413h-.984a.5.5 0 0 1-.493-.587L6 17H2.595a.5.5 0 0 1-.492-.586l.175-1A.5.5 0 0 1 2.77 15h3.58l1.06-6H4.005a.5.5 0 0 1-.492-.586l.175-1A.5.5 0 0 1 4.18 7h3.58l.637-3.587A.5.5 0 0 1 8.889 3h.984a.5.5 0 0 1 .493.587L9.76 7h4.64Zm-1.92 6.92c0-.53.43-.96.96-.96h9.12c.53 0 .96.43.96.96v6.301c0 .53-.43.96-.96.96h-4.43a.96.96 0 0 0-.644.248l-2.445 2.209a.24.24 0 0 1-.401-.178v-2.04a.24.24 0 0 0-.24-.24h-.96a.96.96 0 0 1-.96-.96v-6.3Z"/>
  <path fill="currentColor" fill-rule="evenodd" clip-rule="evenodd" d="m22.81 8.557-2.342-4.755a.993.993 0 0 0-1.782-.004L16.32 8.553A1 1 0 0 0 17.21 10h4.707a1 1 0 0 0 .892-1.443ZM20.077 5h-.995v2.5h.995V5Zm-.497 4a.5.5 0 0 1-.498-.501.5.5 0 0 1 .498-.501.5.5 0 0 1 .497.5.5.5 0 0 1-.497.502Z"/>
</svg>
