<svg width="24" height="24" viewBox="0 0 24 24">
  <path fill="currentColor" d="M14 8a1 1 0 0 0-1-1H9.76l.606-3.413A.5.5 0 0 0 9.873 3H8.89a.5.5 0 0 0-.492.413L7.76 7H4.18a.5.5 0 0 0-.492.414l-.175 1A.5.5 0 0 0 4.005 9H7.41l-1.06 6H2.77a.5.5 0 0 0-.492.414l-.175 1a.5.5 0 0 0 .492.586H6l-.606 3.413a.5.5 0 0 0 .493.587h.984a.5.5 0 0 0 .492-.413L8 17h6l-.606 3.413a.5.5 0 0 0 .493.587h.984a.5.5 0 0 0 .492-.413L16 17h3.58a.5.5 0 0 0 .492-.414l.175-1a.5.5 0 0 0-.492-.586H16.35l.326-1.844a.985.985 0 1 0-1.94-.343L14.35 15h-6l1.06-6H13a1 1 0 0 0 1-1Z"/>
  <path fill="currentColor" fill-rule="evenodd" clip-rule="evenodd" d="m19.891 3.802 2.353 4.755A1 1 0 0 1 21.348 10h-4.73a1 1 0 0 1-.894-1.447L18.1 3.798a1 1 0 0 1 1.79.004ZM18.5 5h1v2.5h-1V5Zm0 3.499a.5.5 0 1 0 1 .001.5.5 0 0 0-1-.001Z"/>
</svg>
