<svg width="24" height="24" viewBox="0 0 24 24">
  <path fill="currentColor" fill-rule="evenodd" clip-rule="evenodd" d="M22.545 4.92v-1c0-1.12-.975-2-2.025-2-1.05 0-2 .88-2 2v1h-.76a.24.24 0 0 0-.24.24v4.52c0 .132.108.24.24.24h5.52a.24.24 0 0 0 .24-.24V5.16a.24.24 0 0 0-.24-.24h-.735Zm-1.025 0h-2v-1a1 1 0 1 1 2 0v1Z"/>
  <path fill="currentColor" d="M15.44 7a.24.24 0 0 1 .24.24v1.52a.24.24 0 0 1-.24.24H9.41l-1.06 6h2.21v2H8l-.637 3.587a.5.5 0 0 1-.492.413h-.984a.5.5 0 0 1-.493-.587L6 17H2.595a.5.5 0 0 1-.492-.586l.175-1A.5.5 0 0 1 2.77 15h3.58l1.06-6H4.005a.5.5 0 0 1-.492-.586l.175-1A.5.5 0 0 1 4.18 7h3.58l.637-3.587A.5.5 0 0 1 8.889 3h.984a.5.5 0 0 1 .493.587L9.76 7h5.68Z"/>
  <path fill="currentColor" d="M13.44 12.96a.96.96 0 0 0-.96.96v6.301c0 .53.43.96.96.96h.96a.24.24 0 0 1 .24.24v2.039a.24.24 0 0 0 .4.178l2.446-2.21a.96.96 0 0 1 .643-.247h4.431c.53 0 .96-.43.96-.96V13.92a.96.96 0 0 0-.96-.96h-9.12Z"/>
</svg>
